<svg width="24" height="23" viewBox="0 0 24 23" fill="none" xmlns="http://www.w3.org/2000/svg">
<path d="M23.7195 20.9261L17.7554 15.5319C19.3807 13.7341 20.1798 11.44 19.9874 9.12426C19.7951 6.80851 18.6259 4.64821 16.7219 3.09023C14.8178 1.53224 12.3245 0.695761 9.75763 0.753807C7.19079 0.811854 4.74681 1.75999 2.93121 3.40209C1.11562 5.04419 0.0673091 7.25463 0.00313003 9.57619C-0.0610491 11.8977 0.863809 14.1528 2.5864 15.8749C4.309 17.597 6.69754 18.6544 9.25796 18.8284C11.8184 19.0024 14.3548 18.2797 16.3426 16.8097L22.3067 22.2039C22.4951 22.3685 22.7475 22.4596 23.0095 22.4575C23.2715 22.4555 23.5221 22.3604 23.7073 22.1929C23.8926 22.0253 23.9977 21.7987 24 21.5617C24.0022 21.3248 23.9015 21.0965 23.7195 20.9261ZM10.0238 17.0465C8.44282 17.0465 6.89737 16.6225 5.58286 15.8281C4.26835 15.0337 3.24381 13.9046 2.6388 12.5835C2.0338 11.2625 1.8755 9.80887 2.18393 8.40647C2.49236 7.00407 3.25366 5.71588 4.37156 4.7048C5.48946 3.69372 6.91376 3.00517 8.46433 2.72622C10.0149 2.44726 11.6221 2.59043 13.0827 3.13762C14.5433 3.68481 15.7917 4.61145 16.6701 5.80035C17.5484 6.98925 18.0172 8.38701 18.0172 9.81689C18.0148 11.7336 17.1719 13.5713 15.6734 14.9266C14.1748 16.282 12.143 17.0443 10.0238 17.0465Z" fill="#F2EBFF"/>
</svg>



